<mxfile host="Electron" modified="2023-11-17T16:56:11.633Z" agent="Mozilla/5.0 (Windows NT 10.0; Win64; x64) AppleWebKit/537.36 (KHTML, like Gecko) draw.io/22.1.2 Chrome/114.0.5735.289 Electron/25.9.4 Safari/537.36" etag="S6zHRPI1RTo0rU3XuQWz" version="22.1.2" type="device">
  <diagram name="Page-1" id="4TFYPR2I8W9sSi1XGG0L">
    <mxGraphModel dx="3152" dy="1347" grid="1" gridSize="10" guides="1" tooltips="1" connect="1" arrows="1" fold="1" page="1" pageScale="1" pageWidth="850" pageHeight="1100" math="0" shadow="0">
      <root>
        <mxCell id="0" />
        <mxCell id="1" parent="0" />
        <mxCell id="Hnm2vygkQUJbO4HlrtlP-2" value="" style="image;points=[];aspect=fixed;html=1;align=center;shadow=0;dashed=0;image=img/lib/allied_telesis/computer_and_terminals/Personal_Computer.svg;" parent="1" vertex="1">
          <mxGeometry x="160" y="270" width="45.6" height="61.800000000000004" as="geometry" />
        </mxCell>
        <mxCell id="Hnm2vygkQUJbO4HlrtlP-3" value="" style="image;points=[];aspect=fixed;html=1;align=center;shadow=0;dashed=0;image=img/lib/allied_telesis/computer_and_terminals/Smartphone.svg;" parent="1" vertex="1">
          <mxGeometry x="172.9" y="170" width="19.8" height="43.199999999999996" as="geometry" />
        </mxCell>
        <mxCell id="Hnm2vygkQUJbO4HlrtlP-4" value="&lt;font style=&quot;font-size: 14px;&quot;&gt;&lt;b&gt;IOT Sensors&lt;/b&gt;&lt;/font&gt;" style="html=1;whiteSpace=wrap;labelBorderColor=none;" parent="1" vertex="1">
          <mxGeometry x="127.80000000000001" y="380" width="110" height="50" as="geometry" />
        </mxCell>
        <mxCell id="Hnm2vygkQUJbO4HlrtlP-5" value="" style="shape=umlActor;verticalLabelPosition=bottom;verticalAlign=top;html=1;" parent="1" vertex="1">
          <mxGeometry x="30" y="190" width="30" height="60" as="geometry" />
        </mxCell>
        <mxCell id="Hnm2vygkQUJbO4HlrtlP-8" value="" style="endArrow=classic;html=1;rounded=0;exitX=0.5;exitY=0.5;exitDx=0;exitDy=0;exitPerimeter=0;entryX=0.042;entryY=0.482;entryDx=0;entryDy=0;entryPerimeter=0;" parent="1" source="Hnm2vygkQUJbO4HlrtlP-5" target="Hnm2vygkQUJbO4HlrtlP-3" edge="1">
          <mxGeometry width="50" height="50" relative="1" as="geometry">
            <mxPoint x="240" y="390" as="sourcePoint" />
            <mxPoint x="290" y="340" as="targetPoint" />
          </mxGeometry>
        </mxCell>
        <mxCell id="Hnm2vygkQUJbO4HlrtlP-9" value="" style="endArrow=classic;html=1;rounded=0;exitX=0.5;exitY=0.5;exitDx=0;exitDy=0;exitPerimeter=0;entryX=-0.002;entryY=0.402;entryDx=0;entryDy=0;entryPerimeter=0;" parent="1" source="Hnm2vygkQUJbO4HlrtlP-5" target="Hnm2vygkQUJbO4HlrtlP-2" edge="1">
          <mxGeometry width="50" height="50" relative="1" as="geometry">
            <mxPoint x="55" y="230" as="sourcePoint" />
            <mxPoint x="184" y="201" as="targetPoint" />
          </mxGeometry>
        </mxCell>
        <mxCell id="WKRPnfjwLZEGeS_d7yNW-2" style="edgeStyle=orthogonalEdgeStyle;rounded=0;orthogonalLoop=1;jettySize=auto;html=1;exitX=1;exitY=0.5;exitDx=0;exitDy=0;entryX=0;entryY=0.49;entryDx=0;entryDy=0;entryPerimeter=0;strokeWidth=5;" parent="1" source="Hnm2vygkQUJbO4HlrtlP-10" target="WKRPnfjwLZEGeS_d7yNW-1" edge="1">
          <mxGeometry relative="1" as="geometry">
            <mxPoint x="360" y="301.1428571428571" as="targetPoint" />
          </mxGeometry>
        </mxCell>
        <mxCell id="Hnm2vygkQUJbO4HlrtlP-10" value="" style="rounded=0;whiteSpace=wrap;html=1;fillColor=none;" parent="1" vertex="1">
          <mxGeometry x="-20" y="95.9" width="290" height="410" as="geometry" />
        </mxCell>
        <mxCell id="Hnm2vygkQUJbO4HlrtlP-11" value="Data Collection" style="text;html=1;strokeColor=none;fillColor=none;align=center;verticalAlign=middle;whiteSpace=wrap;rounded=0;fontSize=32;fontStyle=1" parent="1" vertex="1">
          <mxGeometry x="-10" y="50" width="280" height="30" as="geometry" />
        </mxCell>
        <mxCell id="WKRPnfjwLZEGeS_d7yNW-1" value="&lt;b&gt;&lt;font style=&quot;font-size: 61px;&quot;&gt;API&lt;/font&gt;&lt;/b&gt;" style="rounded=0;whiteSpace=wrap;html=1;fillColor=#008a00;fontColor=#ffffff;strokeColor=#005700;" parent="1" vertex="1">
          <mxGeometry x="370" y="100" width="280" height="410" as="geometry" />
        </mxCell>
        <mxCell id="GigvhZvUUBxBsWJsg0pN-1" value="&lt;font style=&quot;font-size: 48px;&quot;&gt;Business&lt;br&gt;&amp;amp;&lt;br&gt;Persistence Logic&lt;/font&gt;" style="rounded=0;whiteSpace=wrap;html=1;fillColor=#647687;fontColor=#ffffff;strokeColor=#314354;" vertex="1" parent="1">
          <mxGeometry x="740" y="100" width="330" height="410" as="geometry" />
        </mxCell>
        <mxCell id="GigvhZvUUBxBsWJsg0pN-2" value="Authentication&lt;br&gt;&lt;b&gt;&amp;amp;&lt;/b&gt;&lt;br&gt;Authorization" style="rounded=0;whiteSpace=wrap;html=1;" vertex="1" parent="1">
          <mxGeometry x="450" y="200" width="120" height="60" as="geometry" />
        </mxCell>
        <mxCell id="GigvhZvUUBxBsWJsg0pN-3" style="edgeStyle=orthogonalEdgeStyle;rounded=0;orthogonalLoop=1;jettySize=auto;html=1;exitX=1;exitY=0.5;exitDx=0;exitDy=0;entryX=0;entryY=0.5;entryDx=0;entryDy=0;strokeWidth=5;" edge="1" parent="1" source="WKRPnfjwLZEGeS_d7yNW-1" target="GigvhZvUUBxBsWJsg0pN-1">
          <mxGeometry relative="1" as="geometry">
            <mxPoint x="760" y="304.57" as="targetPoint" />
            <mxPoint x="660" y="304.57" as="sourcePoint" />
          </mxGeometry>
        </mxCell>
        <mxCell id="GigvhZvUUBxBsWJsg0pN-4" value="&lt;font style=&quot;font-size: 61px;&quot;&gt;&lt;b&gt;MySql&lt;/b&gt;&lt;/font&gt;" style="strokeWidth=2;html=1;shape=mxgraph.flowchart.database;whiteSpace=wrap;fillColor=#1ba1e2;fontColor=#ffffff;strokeColor=#006EAF;" vertex="1" parent="1">
          <mxGeometry x="740" y="720" width="390" height="320" as="geometry" />
        </mxCell>
        <mxCell id="GigvhZvUUBxBsWJsg0pN-5" style="edgeStyle=orthogonalEdgeStyle;rounded=0;orthogonalLoop=1;jettySize=auto;html=1;exitX=0.5;exitY=1;exitDx=0;exitDy=0;entryX=0.5;entryY=0;entryDx=0;entryDy=0;strokeWidth=5;entryPerimeter=0;" edge="1" parent="1" source="GigvhZvUUBxBsWJsg0pN-1" target="GigvhZvUUBxBsWJsg0pN-4">
          <mxGeometry relative="1" as="geometry">
            <mxPoint x="970" y="620" as="targetPoint" />
            <mxPoint x="880" y="620" as="sourcePoint" />
          </mxGeometry>
        </mxCell>
        <mxCell id="GigvhZvUUBxBsWJsg0pN-6" value="" style="verticalLabelPosition=bottom;html=1;verticalAlign=top;align=center;strokeColor=#314354;fillColor=#647687;shape=mxgraph.azure.queue_generic;pointerEvents=1;fontColor=#ffffff;" vertex="1" parent="1">
          <mxGeometry x="1220" y="237.59999999999997" width="350" height="126.6" as="geometry" />
        </mxCell>
        <mxCell id="GigvhZvUUBxBsWJsg0pN-7" value="&lt;font style=&quot;font-size: 61px;&quot;&gt;RabbitMQ&lt;/font&gt;" style="text;html=1;align=center;verticalAlign=middle;resizable=0;points=[];autosize=1;strokeColor=none;fillColor=none;" vertex="1" parent="1">
          <mxGeometry x="1240" y="140" width="300" height="90" as="geometry" />
        </mxCell>
        <mxCell id="GigvhZvUUBxBsWJsg0pN-8" value="" style="rounded=0;whiteSpace=wrap;html=1;fillColor=none;" vertex="1" parent="1">
          <mxGeometry x="1180" y="100" width="430" height="420" as="geometry" />
        </mxCell>
        <mxCell id="GigvhZvUUBxBsWJsg0pN-9" style="edgeStyle=orthogonalEdgeStyle;rounded=0;orthogonalLoop=1;jettySize=auto;html=1;exitX=1.001;exitY=0.46;exitDx=0;exitDy=0;entryX=0.001;entryY=0.449;entryDx=0;entryDy=0;strokeWidth=5;exitPerimeter=0;entryPerimeter=0;" edge="1" parent="1" source="GigvhZvUUBxBsWJsg0pN-1" target="GigvhZvUUBxBsWJsg0pN-8">
          <mxGeometry relative="1" as="geometry">
            <mxPoint x="1170" y="290" as="targetPoint" />
            <mxPoint x="1080" y="290" as="sourcePoint" />
          </mxGeometry>
        </mxCell>
        <mxCell id="GigvhZvUUBxBsWJsg0pN-11" value="&lt;font style=&quot;font-size: 61px;&quot;&gt;Processing System&lt;/font&gt;" style="rounded=0;whiteSpace=wrap;html=1;fillColor=none;" vertex="1" parent="1">
          <mxGeometry x="1790" y="100" width="420" height="420" as="geometry" />
        </mxCell>
        <mxCell id="GigvhZvUUBxBsWJsg0pN-12" style="edgeStyle=orthogonalEdgeStyle;rounded=0;orthogonalLoop=1;jettySize=auto;html=1;exitX=1.001;exitY=0.474;exitDx=0;exitDy=0;entryX=-0.002;entryY=0.474;entryDx=0;entryDy=0;strokeWidth=5;exitPerimeter=0;entryPerimeter=0;" edge="1" parent="1" source="GigvhZvUUBxBsWJsg0pN-8" target="GigvhZvUUBxBsWJsg0pN-11">
          <mxGeometry relative="1" as="geometry">
            <mxPoint x="1730" y="300.52" as="targetPoint" />
            <mxPoint x="1620" y="300.52" as="sourcePoint" />
          </mxGeometry>
        </mxCell>
        <mxCell id="GigvhZvUUBxBsWJsg0pN-13" value="&lt;font style=&quot;font-size: 61px;&quot;&gt;Notification Service&lt;/font&gt;" style="rounded=0;whiteSpace=wrap;html=1;fillColor=none;" vertex="1" parent="1">
          <mxGeometry x="1790" y="1160" width="430" height="410" as="geometry" />
        </mxCell>
        <mxCell id="GigvhZvUUBxBsWJsg0pN-14" value="" style="verticalLabelPosition=bottom;html=1;verticalAlign=top;align=center;strokeColor=#314354;fillColor=#647687;shape=mxgraph.azure.queue_generic;pointerEvents=1;fontColor=#ffffff;" vertex="1" parent="1">
          <mxGeometry x="1825" y="747.5999999999999" width="350" height="126.6" as="geometry" />
        </mxCell>
        <mxCell id="GigvhZvUUBxBsWJsg0pN-15" value="&lt;font style=&quot;font-size: 61px;&quot;&gt;RabbitMQ&lt;/font&gt;" style="text;html=1;align=center;verticalAlign=middle;resizable=0;points=[];autosize=1;strokeColor=none;fillColor=none;" vertex="1" parent="1">
          <mxGeometry x="1845" y="650" width="300" height="90" as="geometry" />
        </mxCell>
        <mxCell id="GigvhZvUUBxBsWJsg0pN-16" value="" style="rounded=0;whiteSpace=wrap;html=1;fillColor=none;" vertex="1" parent="1">
          <mxGeometry x="1785" y="620" width="430" height="420" as="geometry" />
        </mxCell>
        <mxCell id="GigvhZvUUBxBsWJsg0pN-17" style="edgeStyle=orthogonalEdgeStyle;rounded=0;orthogonalLoop=1;jettySize=auto;html=1;exitX=0.5;exitY=1;exitDx=0;exitDy=0;entryX=0.5;entryY=0;entryDx=0;entryDy=0;strokeWidth=5;" edge="1" parent="1" source="GigvhZvUUBxBsWJsg0pN-11" target="GigvhZvUUBxBsWJsg0pN-16">
          <mxGeometry relative="1" as="geometry">
            <mxPoint x="2089.5" y="580" as="targetPoint" />
            <mxPoint x="1910.5" y="580" as="sourcePoint" />
          </mxGeometry>
        </mxCell>
        <mxCell id="GigvhZvUUBxBsWJsg0pN-18" style="edgeStyle=orthogonalEdgeStyle;rounded=0;orthogonalLoop=1;jettySize=auto;html=1;exitX=0.484;exitY=1.003;exitDx=0;exitDy=0;entryX=0.469;entryY=0;entryDx=0;entryDy=0;strokeWidth=5;exitPerimeter=0;entryPerimeter=0;" edge="1" parent="1" source="GigvhZvUUBxBsWJsg0pN-16" target="GigvhZvUUBxBsWJsg0pN-13">
          <mxGeometry relative="1" as="geometry">
            <mxPoint x="1994.47" y="1170" as="targetPoint" />
            <mxPoint x="1994.47" y="1070" as="sourcePoint" />
          </mxGeometry>
        </mxCell>
      </root>
    </mxGraphModel>
  </diagram>
</mxfile>
